<!DOCTYPE svg PUBLIC "-//W3C//DTD SVG 1.1//EN" "http://www.w3.org/Graphics/SVG/1.1/DTD/svg11.dtd">
<!-- Uploaded to: SVG Repo, www.svgrepo.com, Transformed by: SVG Repo Mixer Tools -->
<svg fill="#37b182" version="1.1" id="Layer_1" xmlns="http://www.w3.org/2000/svg" xmlns:xlink="http://www.w3.org/1999/xlink" viewBox="0 0 512 512" xml:space="preserve" width="800px" height="800px">
<g id="SVGRepo_bgCarrier" stroke-width="0"/>
<g id="SVGRepo_tracerCarrier" stroke-linecap="round" stroke-linejoin="round"/>
<g id="SVGRepo_iconCarrier"> <g> <g> <rect x="205.063" y="326.438" width="101.867" height="19.715"/> </g> </g> <g> <g> <polygon points="337.352,326.438 337.352,376.57 174.648,376.57 174.648,326.438 0,326.438 0,495.76 512,495.76 512,326.438 "/> </g> </g> <g> <g> <rect x="205.063" y="276.3" width="101.867" height="19.715"/> </g> </g> <g> <g> <polygon points="0,126.698 0,296.02 174.648,296.02 174.648,245.888 337.352,245.888 337.352,296.02 512,296.02 512,126.698 "/> </g> </g> <g> <g> <path d="M256,16.24c-44.857,0-81.352,36.495-81.352,81.352h30.417c0-28.085,22.849-50.935,50.935-50.935 s50.935,22.849,50.935,50.935h30.417C337.351,52.733,300.857,16.24,256,16.24z"/> </g> </g> </g>
</svg>